<svg width="200" height="200" viewBox="0 0 200 200" xmlns="http://www.w3.org/2000/svg">
  <defs>
    <linearGradient id="logoGrad" x1="0%" y1="0%" x2="100%" y2="100%">
      <stop offset="0%" style="stop-color:#062699;stop-opacity:1" />
      <stop offset="21%" style="stop-color:#00a5fb;stop-opacity:1" />
      <stop offset="100%" style="stop-color:#00a5fb;stop-opacity:1" />
    </linearGradient>
  </defs>
  <path d="M 100,50 C 85,50 75,60 75,70 75,85 90,95 100,110 110,95 125,85 125,70 125,60 115,50 100,50 Z M 100,75 C 95,75 90,80 90,85 90,92 95,97 100,105 105,97 110,92 110,85 110,80 105,75 100,75 Z" fill="url(#logoGrad)" transform="translate(0, -10)"/>
  <circle cx="70" cy="120" r="22" fill="url(#logoGrad)" opacity="0.9"/>
  <circle cx="130" cy="120" r="22" fill="url(#logoGrad)" opacity="0.9"/>
  <path d="M 70,135 Q 100,155 130,135" stroke="url(#logoGrad)" stroke-width="8" fill="none" stroke-linecap="round"/>
</svg>
